# File created by Blade
# Date/Time:  Thu Jan 22 19:08:58 2015
# Frame Rate: 120.000 fps
#------------------------------------------------------
:FULLY-SPECIFIED
:DEGREES
1602
root -2.489775 32.865842 0.099330 7.541902 -1.176817 2.665335
RightUpLeg -0.277823 -9.241046 -3.202023
RightLeg -0.174142 -0.000000 0.000000
RightFoot -13.578506 -6.215042 4.297501
RightToeBase 5.761721 -0.000000 -0.000000
LeftUpLeg -0.590381 4.272525 3.132808
LeftLeg 1.395477 -0.000000 -0.000000
LeftFoot -12.126176 0.960573 -11.560214
LeftToeBase 8.015709 -0.000000 -0.000000
Spine -14.139304 -1.470964 -2.041951
RightShoulder 4.897186 16.831397 -29.266227
RightArm 76.459807 -15.836189 65.149185
RightForeArm -18.975827 0.000000 12.611572
RightHand 8.106787 0.000000 5.082765
RightHandThumb1 -24.326973 -0.000000 -32.862282
LeftShoulder -4.843734 -20.960456 32.389820
LeftArm 73.109170 21.458613 -67.248838
LeftForeArm 27.481891 -0.000000 7.069488
LeftHand -5.296937 -0.000000 -6.463218
LeftHandThumb1 -26.253704 0.000000 33.147579
Head -0.279804 3.163631 -0.941487
1603
root -2.491786 32.866403 0.092764 7.539317 -1.180484 2.667812
RightUpLeg -0.282389 -9.281834 -3.200111
RightLeg -0.187587 -0.000000 0.000000
RightFoot -13.554034 -6.169992 4.272987
RightToeBase 5.740113 -0.000000 -0.000000
LeftUpLeg -0.601427 4.287561 3.133207
LeftLeg 1.398536 -0.000000 -0.000000
LeftFoot -12.112066 0.952583 -11.553930
LeftToeBase 7.980566 -0.000000 -0.000000
Spine -14.127048 -1.476744 -2.054928
RightShoulder 4.900144 16.834750 -29.280505
RightArm 76.478580 -15.856557 65.131393
RightForeArm -19.124084 -0.000000 12.593875
RightHand 8.106256 -0.000000 4.884711
RightHandThumb1 -24.326973 -0.000000 -32.862282
LeftShoulder -4.838561 -20.958247 32.389322
LeftArm 73.123946 21.458330 -67.212864
LeftForeArm 27.644846 -0.000000 6.987158
LeftHand -5.094161 -0.000000 -6.244622
LeftHandThumb1 -26.253704 0.000000 33.147579
Head -0.303841 3.174141 -0.917031
1604
root -2.493145 32.867314 0.087105 7.532634 -1.172742 2.668699
RightUpLeg -0.274785 -9.314731 -3.198791
RightLeg -0.209950 -0.000000 0.000000
RightFoot -13.532870 -6.125500 4.279192
RightToeBase 5.838358 -0.000000 -0.000000
LeftUpLeg -0.609614 4.280508 3.135305
LeftLeg 1.403473 -0.000000 -0.000000
LeftFoot -12.096773 0.948893 -11.578496
LeftToeBase 8.009212 -0.000000 -0.000000
Spine -14.117867 -1.485325 -2.063410
RightShoulder 4.909418 16.808714 -29.283504
RightArm 76.506058 -15.845812 65.090885
RightForeArm -19.107381 0.000000 12.597382
RightHand 8.125687 -0.000000 4.887457
RightHandThumb1 -24.326973 -0.000000 -32.862282
LeftShoulder -4.833560 -20.934466 32.388796
LeftArm 73.142845 21.446105 -67.188036
LeftForeArm 27.607465 0.000000 6.990801
LeftHand -5.077449 0.000000 -6.268121
LeftHandThumb1 -26.253704 0.000000 33.147579
Head -0.294151 3.160289 -0.920312
1605
root -2.494803 32.868001 0.081236 7.531674 -1.171295 2.668089
RightUpLeg -0.278235 -9.327754 -3.194567
RightLeg -0.221830 -0.000000 0.000000
RightFoot -13.520416 -6.120392 4.269756
RightToeBase 5.760246 -0.000000 -0.000000
LeftUpLeg -0.619652 4.297109 3.139183
LeftLeg 1.405184 -0.000000 -0.000000
LeftFoot -12.085734 0.934751 -11.558120
LeftToeBase 8.027203 -0.000000 -0.000000
Spine -14.110036 -1.488741 -2.073878
RightShoulder 4.903249 16.799306 -29.283378
RightArm 76.501215 -15.817627 65.123133
RightForeArm -18.996751 -0.000000 12.618053
RightHand 8.182462 -0.000000 5.112809
RightHandThumb1 -24.326973 -0.000000 -32.862282
LeftShoulder -4.859877 -20.891218 32.401559
LeftArm 73.158399 21.422723 -67.214395
LeftForeArm 27.470591 -0.000000 7.098919
LeftHand -5.260182 -0.000000 -6.478597
LeftHandThumb1 -26.253704 0.000000 33.147579
Head -0.317895 3.162408 -0.894630
1606
root -2.497069 32.868392 0.075292 7.526851 -1.171832 2.663091
RightUpLeg -0.278630 -9.352202 -3.184847
RightLeg -0.234316 -0.000000 0.000000
RightFoot -13.482216 -6.132833 4.207252
RightToeBase 5.261385 -0.000000 -0.000000
LeftUpLeg -0.629817 4.304825 3.144892
LeftLeg 1.419308 -0.000000 -0.000000
LeftFoot -12.094806 0.934081 -11.581550
LeftToeBase 8.037201 -0.000000 -0.000000
Spine -14.101393 -1.490389 -2.073984
RightShoulder 4.915411 16.803303 -29.306237
RightArm 76.478543 -15.803937 65.145692
RightForeArm -19.010455 0.000000 12.634607
RightHand 8.205668 -0.000000 5.166253
RightHandThumb1 -24.326973 -0.000000 -32.862282
LeftShoulder -4.849357 -20.891080 32.388046
LeftArm 73.127872 21.384727 -67.308234
LeftForeArm 27.584282 -0.000000 7.066515
LeftHand -5.241658 -0.000000 -6.508378
LeftHandThumb1 -26.253704 0.000000 33.147579
Head -0.303669 3.155194 -0.915099
1607
root -2.498859 32.869708 0.069270 7.517544 -1.171755 2.670436
RightUpLeg -0.274130 -9.365294 -3.191375
RightLeg -0.244897 -0.000000 0.000000
RightFoot -13.486500 -6.073955 4.274678
RightToeBase 5.729400 -0.000000 -0.000000
LeftUpLeg -0.633084 4.306407 3.141741
LeftLeg 1.415080 -0.000000 -0.000000
LeftFoot -12.059382 0.936694 -11.566518
LeftToeBase 7.984212 -0.000000 -0.000000
Spine -14.084429 -1.488227 -2.097024
RightShoulder 4.915533 16.822654 -29.306647
RightArm 76.435062 -15.807902 65.131297
RightForeArm -18.984537 -0.000000 12.671271
RightHand 8.260158 -0.000000 5.185081
RightHandThumb1 -24.326973 -0.000000 -32.862282
LeftShoulder -4.834905 -20.918879 32.395030
LeftArm 73.114829 21.396519 -67.284910
LeftForeArm 27.749278 -0.000000 6.977732
LeftHand -5.018860 0.000000 -6.335712
LeftHandThumb1 -26.253704 0.000000 33.147579
Head -0.321639 3.162734 -0.878270
1608
root -2.500803 32.870102 0.063639 7.512528 -1.177400 2.670144
RightUpLeg -0.271214 -9.366493 -3.187601
RightLeg -0.265607 -0.000000 0.000000
RightFoot -13.468848 -6.050726 4.279368
RightToeBase 5.830520 -0.000000 -0.000000
LeftUpLeg -0.635559 4.310727 3.144731
LeftLeg 1.411457 -0.000000 -0.000000
LeftFoot -12.050544 0.942824 -11.555031
LeftToeBase 7.979158 -0.000000 -0.000000
Spine -14.080009 -1.490610 -2.108570
RightShoulder 4.940807 16.815488 -29.303922
RightArm 76.427138 -15.789673 65.107691
RightForeArm -18.952341 -0.000000 12.687623
RightHand 8.294551 -0.000000 5.225766
RightHandThumb1 -24.326973 -0.000000 -32.862282
LeftShoulder -4.830721 -20.937127 32.412407
LeftArm 73.098286 21.407788 -67.248270
LeftForeArm 27.771906 0.000000 6.973061
LeftHand -5.004304 -0.000000 -6.359649
LeftHandThumb1 -26.253704 0.000000 33.147579
Head -0.315690 3.185658 -0.884239
1609
root -2.503204 32.870965 0.057817 7.501844 -1.188337 2.664430
RightUpLeg -0.271369 -9.355976 -3.179655
RightLeg -0.268615 -0.000000 0.000000
RightFoot -13.456992 -6.048440 4.285711
RightToeBase 5.840959 -0.000000 -0.000000
LeftUpLeg -0.633927 4.322681 3.153301
LeftLeg 1.413795 -0.000000 -0.000000
LeftFoot -12.049396 0.937606 -11.580094
LeftToeBase 8.013464 -0.000000 -0.000000
Spine -14.061608 -1.476798 -2.112871
RightShoulder 4.944751 16.791524 -29.311176
RightArm 76.439992 -15.773870 65.098149
RightForeArm -18.956480 -0.000000 12.701482
RightHand 8.285776 0.000000 5.223280
RightHandThumb1 -24.326973 -0.000000 -32.862282
LeftShoulder -4.843313 -20.905666 32.412002
LeftArm 73.136444 21.399395 -67.196061
LeftForeArm 27.584775 -0.000000 7.059093
LeftHand -5.180462 -0.000000 -6.550307
LeftHandThumb1 -26.253704 0.000000 33.147579
Head -0.321653 3.158947 -0.864605
1610
root -2.506263 32.871428 0.051676 7.496533 -1.200650 2.653393
RightUpLeg -0.274952 -9.350400 -3.165326
RightLeg -0.278651 -0.000000 0.000000
RightFoot -13.427581 -6.045390 4.248697
RightToeBase 5.832258 -0.000000 -0.000000
LeftUpLeg -0.638620 4.341704 3.168637
LeftLeg 1.416309 -0.000000 -0.000000
LeftFoot -12.042251 0.927442 -11.587539
LeftToeBase 8.011197 -0.000000 -0.000000
Spine -14.051138 -1.467186 -2.114623
RightShoulder 4.946811 16.763881 -29.311813
RightArm 76.441469 -15.750136 65.148304
RightForeArm -19.040728 0.000000 12.713612
RightHand 8.293681 0.000000 5.263494
RightHandThumb1 -24.326973 -0.000000 -32.862282
LeftShoulder -4.844947 -20.900179 32.430452
LeftArm 73.193713 21.438001 -67.023258
LeftForeArm 27.430216 -0.000000 7.068300
LeftHand -5.194874 -0.000000 -6.539865
LeftHandThumb1 -26.253704 0.000000 33.147579
Head -0.323857 3.163214 -0.856465
1611
root -2.508159 32.871757 0.045347 7.491131 -1.206301 2.650609
RightUpLeg -0.281899 -9.343933 -3.159492
RightLeg -0.276289 -0.000000 0.000000
RightFoot -13.433707 -6.043502 4.279309
RightToeBase 5.758260 -0.000000 -0.000000
LeftUpLeg -0.647827 4.318629 3.171180
LeftLeg 1.431915 -0.000000 -0.000000
LeftFoot -12.063363 0.967837 -11.608091
LeftToeBase 8.044163 -0.000000 -0.000000
Spine -14.040248 -1.466184 -2.120466
RightShoulder 4.959018 16.749448 -29.304618
RightArm 76.488285 -15.759141 64.987210
RightForeArm -18.907683 -0.000000 12.720550
RightHand 8.298097 0.000000 5.223310
RightHandThumb1 -24.326973 -0.000000 -32.862282
LeftShoulder -4.829287 -20.888729 32.436519
LeftArm 73.142952 21.373069 -67.189484
LeftForeArm 27.644096 -0.000000 7.036921
LeftHand -5.174021 -0.000000 -6.579714
LeftHandThumb1 -26.253704 0.000000 33.147579
Head -0.324943 3.162600 -0.851808
1612
root -2.511042 32.872318 0.039603 7.485196 -1.222002 2.646591
RightUpLeg -0.289191 -9.333620 -3.151188
RightLeg -0.278657 -0.000000 0.000000
RightFoot -13.414328 -6.044474 4.264367
RightToeBase 5.708758 -0.000000 -0.000000
LeftUpLeg -0.651774 4.326573 3.177788
LeftLeg 1.436793 -0.000000 -0.000000
LeftFoot -12.055024 0.973602 -11.612645
LeftToeBase 8.038942 -0.000000 -0.000000
Spine -14.031937 -1.451190 -2.131994
RightShoulder 4.962593 16.733916 -29.298826
RightArm 76.502095 -15.757493 64.935341
RightForeArm -18.875319 -0.000000 12.730202
RightHand 8.317644 -0.000000 5.237948
RightHandThumb1 -24.326973 -0.000000 -32.862282
LeftShoulder -4.815963 -20.897772 32.454238
LeftArm 73.101367 21.359260 -67.234141
LeftForeArm 27.700922 -0.000000 7.046816
LeftHand -5.133552 -0.000000 -6.642839
LeftHandThumb1 -26.253704 0.000000 33.147579
Head -0.320775 3.163484 -0.843752
1613
root -2.513108 32.873031 0.033927 7.484745 -1.230394 2.649102
RightUpLeg -0.301596 -9.319833 -3.150691
RightLeg -0.275623 -0.000000 0.000000
RightFoot -13.412031 -6.047030 4.255853
RightToeBase 5.754680 -0.000000 -0.000000
LeftUpLeg -0.664232 4.353440 3.179500
LeftLeg 1.439164 -0.000000 -0.000000
LeftFoot -12.028342 0.955236 -11.584712
LeftToeBase 7.980085 -0.000000 -0.000000
Spine -14.030845 -1.453162 -2.139978
RightShoulder 4.976693 16.717027 -29.304053
RightArm 76.517415 -15.751123 64.909207
RightForeArm -18.861603 -0.000000 12.728686
RightHand 8.304133 -0.000000 5.263735
RightHandThumb1 -24.326973 -0.000000 -32.862282
LeftShoulder -4.830897 -20.875878 32.451457
LeftArm 73.201620 21.427834 -66.929471
LeftForeArm 27.458421 -0.000000 7.083583
LeftHand -5.135625 0.000000 -6.602279
LeftHandThumb1 -26.253704 0.000000 33.147579
Head -0.312810 3.171835 -0.852926
